<svg width="100.720703" height="24.976807" viewBox="0 0 100.721 24.9768" fill="none" xmlns="http://www.w3.org/2000/svg" xmlns:xlink="http://www.w3.org/1999/xlink">
	<desc>
			Created with Pixso.
	</desc>
	<defs/>
	<rect id="Rectangle 12" rx="9.000000" width="100.720718" height="24.976835" fill="#070F19" fill-opacity="0.200000"/>
	<rect id="Rectangle 12" x="0.500000" y="0.500000" rx="9.000000" width="99.720718" height="23.976835" stroke="#FFFFFF" stroke-opacity="1.000000" stroke-width="1.000000"/>
	<path id="1:53:45" d="M31.64 17.24L31.64 7.44L28.32 7.44L28.32 8.33L30.63 8.33L30.63 17.24L31.64 17.24ZM42.62 12.22Q41.65 11.45 39.52 11.45L38.26 11.45L38.6 8.33L43.08 8.33L43.08 7.44L37.72 7.44L37.21 12.35L39.3 12.35Q41.08 12.35 41.82 12.87Q42.12 13.07 42.29 13.34Q42.58 13.78 42.58 14.39Q42.58 14.92 42.36 15.32Q42.19 15.62 41.91 15.85Q41.24 16.39 40.03 16.39Q39.11 16.39 38.31 16.08Q38.31 16.08 38.3 16.08Q37.51 15.77 37.02 15.26L36.53 16.06Q37.1 16.63 38.04 16.98Q38.19 17.03 38.34 17.08Q39.15 17.32 40.04 17.32Q41.2 17.32 42 16.93Q42.7 16.6 43.09 16.04Q43.15 15.96 43.2 15.88Q43.28 15.75 43.34 15.61Q43.6 15.04 43.6 14.35Q43.6 13.48 43.21 12.86Q42.98 12.5 42.62 12.22ZM50.47 12.47Q49.67 11.72 48.13 11.64L50.91 8.15L50.91 7.44L44.61 7.44L44.61 8.33L49.62 8.33L46.9 11.73L46.9 12.47L47.6 12.47Q48.93 12.47 49.59 12.99Q49.84 13.19 50 13.46Q50.25 13.86 50.25 14.42Q50.25 14.99 49.99 15.41Q49.84 15.67 49.59 15.87Q48.93 16.39 47.73 16.39Q46.89 16.39 46.14 16.13Q46.06 16.11 45.99 16.08Q45.18 15.77 44.69 15.26L44.2 16.06Q44.77 16.63 45.72 16.98Q45.77 17 45.82 17.01Q46.72 17.32 47.73 17.32Q48.88 17.32 49.67 16.94Q50.42 16.59 50.82 16Q50.85 15.96 50.87 15.91Q50.97 15.77 51.04 15.61Q51.28 15.07 51.28 14.42Q51.28 13.65 50.95 13.06Q50.76 12.74 50.47 12.47ZM62.04 14.66L63.99 14.66L63.99 13.76L62.04 13.76L62.04 11.5L61.05 11.5L61.05 13.76L56.8 13.76L61.81 7.44L60.69 7.44L55.5 13.93L55.5 14.66L61.03 14.66L61.03 17.24L62.04 17.24L62.04 14.66ZM70.54 12.22Q69.57 11.45 67.44 11.45L66.18 11.45L66.51 8.33L70.99 8.33L70.99 7.44L65.63 7.44L65.13 12.35L67.21 12.35Q68.99 12.35 69.74 12.87Q70.03 13.07 70.21 13.34Q70.49 13.78 70.49 14.39Q70.49 14.92 70.27 15.32Q70.11 15.62 69.83 15.85Q69.16 16.39 67.94 16.39Q67.02 16.39 66.23 16.08L66.22 16.08Q65.42 15.77 64.93 15.26L64.44 16.06Q65.02 16.63 65.96 16.98Q66.11 17.03 66.26 17.08Q67.07 17.32 67.96 17.32Q69.12 17.32 69.91 16.93Q70.61 16.6 71.01 16.04Q71.06 15.96 71.11 15.88Q71.19 15.75 71.26 15.61Q71.51 15.04 71.51 14.35Q71.51 13.48 71.12 12.86Q70.9 12.5 70.54 12.22ZM34.46 11.29Q34.59 11.34 34.73 11.34Q34.88 11.34 35 11.29Q35.14 11.24 35.26 11.12Q35.37 11.01 35.43 10.87Q35.49 10.73 35.49 10.57Q35.49 10.39 35.42 10.25Q35.37 10.13 35.26 10.03Q35.15 9.92 35.01 9.86Q34.88 9.81 34.73 9.81Q34.58 9.81 34.45 9.87Q34.32 9.92 34.21 10.03Q34.12 10.12 34.07 10.23Q33.99 10.38 33.99 10.57Q33.99 10.75 34.06 10.9Q34.11 11.02 34.21 11.12Q34.32 11.23 34.46 11.29ZM53.18 11.29Q53.31 11.34 53.45 11.34Q53.59 11.34 53.72 11.29Q53.86 11.24 53.98 11.12Q54.09 11.01 54.15 10.87Q54.21 10.73 54.21 10.57Q54.21 10.39 54.14 10.25Q54.08 10.13 53.98 10.03Q53.87 9.92 53.73 9.86Q53.6 9.81 53.45 9.81Q53.3 9.81 53.17 9.87Q53.04 9.92 52.93 10.03Q52.84 10.12 52.79 10.23Q52.71 10.38 52.71 10.57Q52.71 10.75 52.78 10.9Q52.83 11.02 52.93 11.12Q53.04 11.23 53.18 11.29ZM34.46 17.25Q34.59 17.3 34.73 17.3Q34.88 17.3 35 17.26Q35.14 17.2 35.26 17.08Q35.37 16.97 35.43 16.84Q35.49 16.7 35.49 16.53Q35.49 16.36 35.42 16.21Q35.37 16.1 35.26 16Q35.15 15.88 35.01 15.83Q34.88 15.78 34.73 15.78Q34.58 15.78 34.45 15.83Q34.32 15.89 34.21 16Q34.12 16.09 34.07 16.19Q33.99 16.34 33.99 16.53Q33.99 16.71 34.06 16.86Q34.11 16.98 34.21 17.08Q34.32 17.2 34.46 17.25ZM53.18 17.25Q53.31 17.3 53.45 17.3Q53.59 17.3 53.72 17.26Q53.86 17.2 53.98 17.08Q54.09 16.97 54.15 16.84Q54.21 16.7 54.21 16.53Q54.21 16.36 54.14 16.21Q54.08 16.1 53.98 16Q53.87 15.88 53.73 15.83Q53.6 15.78 53.45 15.78Q53.3 15.78 53.17 15.83Q53.04 15.89 52.93 16Q52.84 16.09 52.79 16.19Q52.71 16.34 52.71 16.53Q52.71 16.71 52.78 16.86Q52.83 16.98 52.93 17.08Q53.04 17.2 53.18 17.25Z" fill="#FFFFFF" fill-opacity="1.000000" fill-rule="evenodd"/>
</svg>
