<svg width="100.720734" height="24.976807" viewBox="0 0 100.721 24.9768" fill="none" xmlns="http://www.w3.org/2000/svg" xmlns:xlink="http://www.w3.org/1999/xlink">
	<desc>
			Created with Pixso.
	</desc>
	<defs/>
	<rect id="Rectangle 8" rx="9.000000" width="100.720718" height="24.976835" fill="#070F19" fill-opacity="0.200000"/>
	<rect id="Rectangle 8" x="0.500000" y="0.500000" rx="9.000000" width="99.720718" height="23.976835" stroke="#FFFFFF" stroke-opacity="1.000000" stroke-width="1.000000"/>
	<path id="2:14:33" d="M34.61 17.24L34.61 16.34L29.22 16.34L32.55 13.06Q33.49 12.15 33.82 11.46Q34.04 11.02 34.11 10.56Q34.16 10.28 34.16 10Q34.16 9.23 33.83 8.67Q33.62 8.33 33.29 8.06Q32.41 7.35 30.92 7.35Q29.79 7.35 28.91 7.72Q28.15 8.03 27.62 8.56Q27.53 8.65 27.44 8.75L28.16 9.37Q28.4 9.09 28.69 8.88Q29.55 8.28 30.83 8.28Q31.94 8.28 32.53 8.76Q32.73 8.92 32.86 9.12Q33.13 9.53 33.13 10.11Q33.13 10.14 33.13 10.17Q33.11 10.7 32.85 11.22Q32.58 11.78 31.81 12.53L27.74 16.52L27.74 17.24L34.61 17.24ZM41.55 17.24L41.55 7.44L38.24 7.44L38.24 8.33L40.55 8.33L40.55 17.24L41.55 17.24ZM50.26 14.66L52.22 14.66L52.22 13.76L50.26 13.76L50.26 11.5L49.28 11.5L49.28 13.76L45.03 13.76L50.04 7.44L48.92 7.44L43.72 13.93L43.72 14.66L49.25 14.66L49.25 17.24L50.26 17.24L50.26 14.66ZM61.87 12.47Q61.07 11.72 59.53 11.64L62.3 8.15L62.3 7.44L56 7.44L56 8.33L61.01 8.33L58.3 11.73L58.3 12.47L59 12.47Q60.33 12.47 60.98 12.99Q61.24 13.19 61.4 13.46Q61.64 13.86 61.64 14.42Q61.64 14.99 61.39 15.41Q61.24 15.67 60.98 15.87Q60.33 16.39 59.12 16.39Q58.28 16.39 57.53 16.13Q57.46 16.11 57.39 16.08Q56.58 15.77 56.08 15.26L55.6 16.06Q56.17 16.63 57.11 16.98Q57.16 17 57.21 17.01Q58.12 17.32 59.12 17.32Q60.27 17.32 61.07 16.94Q61.81 16.59 62.22 16Q62.24 15.96 62.27 15.91Q62.36 15.77 62.43 15.61Q62.68 15.07 62.68 14.42Q62.68 13.65 62.35 13.06Q62.16 12.74 61.87 12.47ZM69.7 12.47Q68.89 11.72 67.36 11.64L70.13 8.15L70.13 7.44L63.83 7.44L63.83 8.33L68.84 8.33L66.12 11.73L66.12 12.47L66.82 12.47Q68.15 12.47 68.81 12.99Q69.07 13.19 69.22 13.46Q69.47 13.86 69.47 14.42Q69.47 14.99 69.22 15.41Q69.06 15.67 68.81 15.87Q68.15 16.39 66.95 16.39Q66.11 16.39 65.36 16.13Q65.29 16.11 65.21 16.08Q64.4 15.77 63.91 15.26L63.42 16.06Q64 16.63 64.94 16.98Q64.99 17 65.04 17.01Q65.94 17.32 66.95 17.32Q68.1 17.32 68.89 16.94Q69.64 16.59 70.04 16Q70.07 15.96 70.1 15.91Q70.19 15.77 70.26 15.61Q70.5 15.07 70.5 14.42Q70.5 13.65 70.17 13.06Q69.99 12.74 69.7 12.47ZM36.35 11.29Q36.48 11.34 36.63 11.34Q36.77 11.34 36.89 11.29Q37.04 11.24 37.15 11.12Q37.26 11.01 37.32 10.87Q37.38 10.73 37.38 10.57Q37.38 10.39 37.31 10.25Q37.26 10.13 37.15 10.03Q37.04 9.92 36.9 9.86Q36.77 9.81 36.63 9.81Q36.47 9.81 36.34 9.87Q36.21 9.92 36.1 10.03Q36.01 10.12 35.96 10.23Q35.88 10.38 35.88 10.57Q35.88 10.75 35.95 10.9Q36 11.02 36.1 11.12Q36.21 11.23 36.35 11.29ZM53.71 11.29Q53.84 11.34 53.99 11.34Q54.13 11.34 54.25 11.29Q54.4 11.24 54.51 11.12Q54.62 11.01 54.68 10.87Q54.74 10.73 54.74 10.57Q54.74 10.39 54.67 10.25Q54.62 10.13 54.51 10.03Q54.4 9.92 54.26 9.86Q54.13 9.81 53.99 9.81Q53.83 9.81 53.7 9.87Q53.57 9.92 53.46 10.03Q53.37 10.12 53.32 10.23Q53.24 10.38 53.24 10.57Q53.24 10.75 53.31 10.9Q53.36 11.02 53.46 11.12Q53.57 11.23 53.71 11.29ZM36.35 17.25Q36.48 17.3 36.63 17.3Q36.77 17.3 36.89 17.26Q37.04 17.2 37.15 17.08Q37.26 16.97 37.32 16.84Q37.38 16.7 37.38 16.53Q37.38 16.36 37.31 16.21Q37.26 16.1 37.15 16Q37.04 15.88 36.9 15.83Q36.77 15.78 36.63 15.78Q36.47 15.78 36.34 15.83Q36.21 15.89 36.1 16Q36.01 16.09 35.96 16.19Q35.88 16.34 35.88 16.53Q35.88 16.71 35.95 16.86Q36 16.98 36.1 17.08Q36.21 17.2 36.35 17.25ZM53.71 17.25Q53.84 17.3 53.99 17.3Q54.13 17.3 54.25 17.26Q54.4 17.2 54.51 17.08Q54.62 16.97 54.68 16.84Q54.74 16.7 54.74 16.53Q54.74 16.36 54.67 16.21Q54.62 16.1 54.51 16Q54.4 15.88 54.26 15.83Q54.13 15.78 53.99 15.78Q53.83 15.78 53.7 15.83Q53.57 15.89 53.46 16Q53.37 16.09 53.32 16.19Q53.24 16.34 53.24 16.53Q53.24 16.71 53.31 16.86Q53.36 16.98 53.46 17.08Q53.57 17.2 53.71 17.25Z" fill="#FFFFFF" fill-opacity="1.000000" fill-rule="evenodd"/>
</svg>
