<svg width="100.720718" height="24.976807" viewBox="0 0 100.721 24.9768" fill="none" xmlns="http://www.w3.org/2000/svg" xmlns:xlink="http://www.w3.org/1999/xlink">
	<desc>
			Created with Pixso.
	</desc>
	<defs/>
	<rect id="Rectangle 10" rx="9.000000" width="100.720718" height="24.976835" fill="#070F19" fill-opacity="0.200000"/>
	<rect id="Rectangle 10" x="0.500000" y="0.500000" rx="9.000000" width="99.720718" height="23.976835" stroke="#FFFFFF" stroke-opacity="1.000000" stroke-width="1.000000"/>
	<path id="2:32:13" d="M35.62 17.24L35.62 16.34L30.23 16.34L33.56 13.06Q34.5 12.15 34.83 11.46Q35.04 11.02 35.12 10.56Q35.17 10.28 35.17 10Q35.17 9.23 34.83 8.67Q34.63 8.33 34.29 8.06Q33.42 7.35 31.92 7.35Q30.8 7.35 29.91 7.72Q29.16 8.03 28.63 8.56Q28.53 8.65 28.45 8.75L29.16 9.37Q29.41 9.09 29.7 8.88Q30.55 8.28 31.84 8.28Q32.94 8.28 33.54 8.76Q33.74 8.92 33.87 9.12Q34.13 9.53 34.13 10.11Q34.13 10.14 34.13 10.17Q34.12 10.7 33.86 11.22Q33.59 11.78 32.82 12.53L28.74 16.52L28.74 17.24L35.62 17.24ZM54.36 17.24L54.36 16.34L48.97 16.34L52.31 13.06Q53.24 12.15 53.58 11.46Q53.79 11.02 53.87 10.56Q53.92 10.28 53.92 10Q53.92 9.23 53.58 8.67Q53.37 8.33 53.04 8.06Q52.17 7.35 50.67 7.35Q49.55 7.35 48.66 7.72Q47.9 8.03 47.37 8.56Q47.28 8.65 47.2 8.75L47.91 9.37Q48.15 9.09 48.44 8.88Q49.3 8.28 50.58 8.28Q51.69 8.28 52.29 8.76Q52.48 8.92 52.62 9.12Q52.88 9.53 52.88 10.11Q52.88 10.14 52.88 10.17Q52.87 10.7 52.61 11.22Q52.33 11.78 51.56 12.53L47.49 16.52L47.49 17.24L54.36 17.24ZM45.52 12.47Q44.72 11.72 43.18 11.64L45.95 8.15L45.95 7.44L39.65 7.44L39.65 8.33L44.66 8.33L41.94 11.73L41.94 12.47L42.64 12.47Q43.97 12.47 44.63 12.99Q44.89 13.19 45.04 13.46Q45.29 13.86 45.29 14.42Q45.29 14.99 45.04 15.41Q44.88 15.67 44.63 15.87Q43.97 16.39 42.77 16.39Q41.93 16.39 41.18 16.13Q41.11 16.11 41.03 16.08Q40.22 15.77 39.73 15.26L39.24 16.06Q39.82 16.63 40.76 16.98Q40.81 17 40.86 17.01Q41.76 17.32 42.77 17.32Q43.92 17.32 44.72 16.94Q45.46 16.59 45.86 16Q45.89 15.96 45.92 15.91Q46.01 15.77 46.08 15.61Q46.33 15.07 46.33 14.42Q46.33 13.65 45.99 13.06Q45.81 12.74 45.52 12.47ZM61.31 17.24L61.31 7.44L57.99 7.44L57.99 8.33L60.3 8.33L60.3 17.24L61.31 17.24ZM69.32 12.47Q68.52 11.72 66.98 11.64L69.75 8.15L69.75 7.44L63.45 7.44L63.45 8.33L68.46 8.33L65.74 11.73L65.74 12.47L66.44 12.47Q67.77 12.47 68.43 12.99Q68.69 13.19 68.84 13.46Q69.09 13.86 69.09 14.42Q69.09 14.99 68.84 15.41Q68.68 15.67 68.43 15.87Q67.77 16.39 66.57 16.39Q65.73 16.39 64.98 16.13Q64.91 16.11 64.83 16.08Q64.02 15.77 63.53 15.26L63.04 16.06Q63.62 16.63 64.56 16.98Q64.61 17 64.66 17.01Q65.56 17.32 66.57 17.32Q67.72 17.32 68.52 16.94Q69.26 16.59 69.66 16Q69.69 15.96 69.72 15.91Q69.81 15.77 69.88 15.61Q70.13 15.07 70.13 14.42Q70.13 13.65 69.79 13.06Q69.61 12.74 69.32 12.47ZM37.36 11.29Q37.49 11.34 37.63 11.34Q37.77 11.34 37.9 11.29Q38.04 11.24 38.16 11.12Q38.27 11.01 38.33 10.87Q38.39 10.73 38.39 10.57Q38.39 10.39 38.32 10.25Q38.26 10.13 38.16 10.03Q38.05 9.92 37.91 9.86Q37.78 9.81 37.63 9.81Q37.48 9.81 37.35 9.87Q37.22 9.92 37.11 10.03Q37.02 10.12 36.97 10.23Q36.89 10.38 36.89 10.57Q36.89 10.75 36.96 10.9Q37.01 11.02 37.11 11.12Q37.22 11.23 37.36 11.29ZM56.1 11.29Q56.23 11.34 56.38 11.34Q56.52 11.34 56.65 11.29Q56.79 11.24 56.91 11.12Q57.02 11.01 57.07 10.87Q57.13 10.73 57.13 10.57Q57.13 10.39 57.07 10.25Q57.01 10.13 56.91 10.03Q56.79 9.92 56.65 9.86Q56.52 9.81 56.38 9.81Q56.23 9.81 56.1 9.87Q55.96 9.92 55.85 10.03Q55.76 10.12 55.71 10.23Q55.64 10.38 55.64 10.57Q55.64 10.75 55.7 10.9Q55.76 11.02 55.85 11.12Q55.97 11.23 56.1 11.29ZM37.36 17.25Q37.49 17.3 37.63 17.3Q37.77 17.3 37.9 17.26Q38.04 17.2 38.16 17.08Q38.27 16.97 38.33 16.84Q38.39 16.7 38.39 16.53Q38.39 16.36 38.32 16.21Q38.26 16.1 38.16 16Q38.05 15.88 37.91 15.83Q37.78 15.78 37.63 15.78Q37.48 15.78 37.35 15.83Q37.22 15.89 37.11 16Q37.02 16.09 36.97 16.19Q36.89 16.34 36.89 16.53Q36.89 16.71 36.96 16.86Q37.01 16.98 37.11 17.08Q37.22 17.2 37.36 17.25ZM56.1 17.25Q56.23 17.3 56.38 17.3Q56.52 17.3 56.65 17.26Q56.79 17.2 56.91 17.08Q57.02 16.97 57.07 16.84Q57.13 16.7 57.13 16.53Q57.13 16.36 57.07 16.21Q57.01 16.1 56.91 16Q56.79 15.88 56.65 15.83Q56.52 15.78 56.38 15.78Q56.23 15.78 56.1 15.83Q55.96 15.89 55.85 16Q55.76 16.09 55.71 16.19Q55.64 16.34 55.64 16.53Q55.64 16.71 55.7 16.86Q55.76 16.98 55.85 17.08Q55.97 17.2 56.1 17.25Z" fill="#FFFFFF" fill-opacity="1.000000" fill-rule="evenodd"/>
</svg>
