<svg width="100.720703" height="24.976807" viewBox="0 0 100.721 24.9768" fill="none" xmlns="http://www.w3.org/2000/svg" xmlns:xlink="http://www.w3.org/1999/xlink">
	<desc>
			Created with Pixso.
	</desc>
	<defs/>
	<rect id="Rectangle 14" rx="9.000000" width="100.720718" height="24.976835" fill="#070F19" fill-opacity="0.200000"/>
	<rect id="Rectangle 14" x="0.500000" y="0.500000" rx="9.000000" width="99.720718" height="23.976835" stroke="#FFFFFF" stroke-opacity="1.000000" stroke-width="1.000000"/>
	<path id="2:58:20" d="M34.14 17.24L34.14 16.34L28.75 16.34L32.08 13.06Q33.02 12.15 33.36 11.46Q33.57 11.02 33.65 10.56Q33.69 10.28 33.69 10Q33.69 9.23 33.36 8.67Q33.15 8.33 32.82 8.06Q31.94 7.35 30.45 7.35Q29.33 7.35 28.44 7.72Q27.68 8.03 27.15 8.56Q27.06 8.65 26.97 8.75L27.69 9.37Q27.93 9.09 28.22 8.88Q29.08 8.28 30.36 8.28Q31.47 8.28 32.06 8.76Q32.26 8.92 32.39 9.12Q32.66 9.53 32.66 10.11Q32.66 10.14 32.66 10.17Q32.64 10.7 32.38 11.22Q32.11 11.78 31.34 12.53L27.27 16.52L27.27 17.24L34.14 17.24ZM53.33 13.02Q52.83 12.41 51.91 12.1Q52.66 11.8 53.07 11.25L53.07 11.25Q53.17 11.11 53.25 10.95Q53.47 10.5 53.47 9.94Q53.47 9.41 53.28 8.98Q53.18 8.76 53.04 8.57Q53.01 8.53 52.98 8.5Q52.56 7.96 51.83 7.67Q51.05 7.35 50.02 7.35Q48.45 7.35 47.52 8.05Q47.08 8.38 46.85 8.82Q46.59 9.31 46.59 9.94Q46.59 10.54 46.83 11.01Q46.9 11.14 46.98 11.25L46.98 11.25Q47.37 11.8 48.13 12.1Q47.2 12.41 46.72 13.01Q46.62 13.14 46.54 13.29Q46.24 13.81 46.24 14.5Q46.24 15.21 46.53 15.76Q46.78 16.22 47.24 16.57Q48.25 17.32 50.02 17.32Q51.18 17.32 52.04 16.98Q52.9 16.63 53.36 16L53.36 16Q53.5 15.81 53.6 15.6Q53.83 15.1 53.83 14.5Q53.83 13.9 53.58 13.41Q53.48 13.2 53.33 13.02ZM64.89 17.24L64.89 16.34L59.5 16.34L62.83 13.06Q63.76 12.15 64.1 11.46Q64.31 11.02 64.39 10.56Q64.44 10.28 64.44 10Q64.44 9.23 64.1 8.67Q63.9 8.33 63.56 8.06Q62.69 7.35 61.19 7.35Q60.07 7.35 59.18 7.72Q58.42 8.03 57.89 8.56Q57.8 8.65 57.72 8.75L58.43 9.37Q58.67 9.09 58.97 8.88Q59.82 8.28 61.11 8.28Q62.21 8.28 62.81 8.76Q63.01 8.92 63.14 9.12Q63.4 9.53 63.4 10.11Q63.4 10.14 63.4 10.17Q63.39 10.7 63.13 11.22Q62.86 11.78 62.09 12.53L58.01 16.52L58.01 17.24L64.89 17.24ZM68.6 17.06Q69.25 17.32 70 17.32Q70.75 17.32 71.39 17.06Q71.72 16.92 72.02 16.72Q72.08 16.68 72.14 16.63Q72.94 16.04 73.41 14.99Q73.92 13.86 73.92 12.33Q73.92 10.81 73.41 9.68Q72.94 8.62 72.13 8.03Q72.07 7.99 72.02 7.95Q71.72 7.75 71.39 7.61Q70.75 7.35 70 7.35Q69.25 7.35 68.6 7.61Q68.27 7.75 67.97 7.95Q67.91 7.99 67.85 8.04Q67.05 8.63 66.58 9.68Q66.09 10.81 66.09 12.33Q66.09 13.86 66.58 14.99Q67.05 16.03 67.84 16.62Q67.91 16.67 67.97 16.72Q68.27 16.92 68.6 17.06ZM44.05 12.22Q43.07 11.45 40.95 11.45L39.69 11.45L40.02 8.33L44.5 8.33L44.5 7.44L39.14 7.44L38.64 12.35L40.72 12.35Q42.5 12.35 43.25 12.87Q43.54 13.07 43.72 13.34Q44 13.78 44 14.4Q44 14.92 43.78 15.32Q43.62 15.62 43.33 15.85Q42.67 16.39 41.45 16.39Q40.53 16.39 39.73 16.08Q39.73 16.08 39.73 16.08Q38.93 15.77 38.44 15.26L37.95 16.06Q38.52 16.63 39.47 16.98Q39.61 17.03 39.76 17.08Q40.58 17.32 41.46 17.32Q42.62 17.32 43.42 16.93Q44.12 16.6 44.51 16.04Q44.57 15.96 44.62 15.88Q44.7 15.75 44.76 15.61Q45.02 15.04 45.02 14.35Q45.02 13.48 44.63 12.86Q44.4 12.5 44.05 12.22ZM47.77 10.73Q47.6 10.39 47.6 9.97Q47.6 9.56 47.76 9.23Q47.93 8.92 48.24 8.68Q48.9 8.21 50.02 8.21Q51.12 8.21 51.79 8.68Q52.11 8.92 52.28 9.24Q52.45 9.56 52.45 9.98Q52.45 10.37 52.3 10.69Q52.13 11.01 51.8 11.26Q51.15 11.73 50.02 11.73Q48.88 11.73 48.24 11.26Q47.93 11.03 47.77 10.73ZM71.03 16.19Q70.56 16.39 70 16.39Q69.44 16.39 68.97 16.2Q68.72 16.09 68.49 15.92Q67.84 15.44 67.47 14.54Q67.11 13.62 67.11 12.33Q67.11 11.05 67.47 10.14Q67.84 9.23 68.49 8.75Q68.72 8.58 68.97 8.48Q69.44 8.28 70 8.28Q70.56 8.28 71.03 8.48Q71.28 8.59 71.5 8.75Q72.15 9.23 72.51 10.14Q72.88 11.05 72.88 12.33Q72.88 13.62 72.51 14.54Q72.15 15.44 71.5 15.92Q71.28 16.08 71.03 16.19ZM35.88 11.29Q36.01 11.34 36.16 11.34Q36.3 11.34 36.42 11.29Q36.57 11.24 36.69 11.12Q36.8 11.01 36.85 10.87Q36.91 10.73 36.91 10.57Q36.91 10.39 36.84 10.25Q36.79 10.13 36.69 10.03Q36.57 9.92 36.43 9.86Q36.3 9.81 36.16 9.81Q36.01 9.81 35.88 9.87Q35.74 9.92 35.63 10.03Q35.54 10.12 35.49 10.23Q35.41 10.38 35.41 10.57Q35.41 10.75 35.48 10.9Q35.53 11.02 35.63 11.12Q35.74 11.23 35.88 11.29ZM55.71 11.29Q55.83 11.34 55.98 11.34Q56.12 11.34 56.25 11.29Q56.39 11.24 56.51 11.12Q56.62 11.01 56.68 10.87Q56.74 10.73 56.74 10.57Q56.74 10.39 56.67 10.25Q56.61 10.13 56.51 10.03Q56.39 9.92 56.25 9.86Q56.13 9.81 55.98 9.81Q55.83 9.81 55.7 9.87Q55.57 9.92 55.45 10.03Q55.37 10.12 55.31 10.23Q55.24 10.38 55.24 10.57Q55.24 10.75 55.3 10.9Q55.36 11.02 55.45 11.12Q55.57 11.23 55.71 11.29ZM52.05 15.93Q51.32 16.47 50.02 16.47Q48.72 16.47 47.99 15.94Q47.65 15.7 47.47 15.37Q47.26 14.99 47.26 14.49Q47.26 14.03 47.45 13.66Q47.63 13.32 48 13.06Q48.73 12.53 50.02 12.53Q51.32 12.53 52.05 13.06Q52.42 13.32 52.6 13.67Q52.79 14.03 52.79 14.49Q52.79 14.94 52.61 15.3Q52.42 15.67 52.05 15.93ZM35.88 17.25Q36.01 17.3 36.16 17.3Q36.3 17.3 36.42 17.26Q36.57 17.2 36.69 17.08Q36.8 16.97 36.85 16.84Q36.91 16.7 36.91 16.53Q36.91 16.36 36.84 16.21Q36.79 16.1 36.69 16Q36.57 15.88 36.43 15.83Q36.3 15.78 36.16 15.78Q36.01 15.78 35.88 15.83Q35.74 15.89 35.63 16Q35.54 16.09 35.49 16.19Q35.41 16.34 35.41 16.53Q35.41 16.71 35.48 16.86Q35.53 16.98 35.63 17.08Q35.74 17.2 35.88 17.25ZM55.71 17.25Q55.83 17.3 55.98 17.3Q56.12 17.3 56.25 17.26Q56.39 17.2 56.51 17.08Q56.62 16.97 56.68 16.84Q56.74 16.7 56.74 16.53Q56.74 16.36 56.67 16.21Q56.61 16.1 56.51 16Q56.39 15.88 56.25 15.83Q56.13 15.78 55.98 15.78Q55.83 15.78 55.7 15.83Q55.57 15.89 55.45 16Q55.37 16.09 55.31 16.19Q55.24 16.34 55.24 16.53Q55.24 16.71 55.3 16.86Q55.36 16.98 55.45 17.08Q55.57 17.2 55.71 17.25Z" fill="#FFFFFF" fill-opacity="1.000000" fill-rule="evenodd"/>
</svg>
