<svg width="40.860565" height="47.955505" viewBox="0 0 40.8606 47.9555" fill="none" xmlns="http://www.w3.org/2000/svg" xmlns:xlink="http://www.w3.org/1999/xlink">
	<desc>
			Created with Pixso.
	</desc>
	<defs/>
	<path id="Vector" d="M38.7 20.1L6.6 0.61C3.99 -0.97 0 0.56 0 4.48L0 43.45C0 46.96 3.71 49.08 6.6 47.32L38.7 27.84C41.57 26.1 41.58 21.83 38.7 20.1ZM29.35 26.55L10.24 38.15C8.29 39.33 5.83 37.89 5.83 35.57L5.83 12.36C5.83 10.04 8.29 8.6 10.24 9.78L29.35 21.39C29.79 21.65 30.15 22.03 30.4 22.48C30.65 22.93 30.79 23.45 30.79 23.97C30.79 24.49 30.65 25 30.4 25.45C30.15 25.9 29.79 26.28 29.35 26.55Z" fill="#FFFFFF" fill-opacity="0.500000" fill-rule="nonzero"/>
	<path id="Vector" d="M10.24 9.78L29.35 21.39C29.79 21.65 30.15 22.03 30.4 22.48C30.65 22.93 30.79 23.45 30.79 23.97C30.79 24.49 30.65 25 30.4 25.45C30.15 25.9 29.79 26.28 29.35 26.55L10.24 38.15C8.29 39.33 5.83 37.89 5.83 35.57L5.83 12.36C5.83 10.04 8.29 8.6 10.24 9.78Z" fill="#FFFFFF" fill-opacity="1.000000" fill-rule="nonzero"/>
</svg>
